{
  "accessors": [
    {
      "bufferView": 2,
      "componentType": 5126,
      "count": 1004,
      "max": [
        1.0,
        0.045892760157585144,
        1.000050663948059
      ],
      "min": [
        -0.9999932646751404,
        -0.0036388535518199205,
        -1.0
      ],
      "type": "VEC3"
    },
    {
      "bufferView": 2,
      "byteOffset": 12048,
      "componentType": 5126,
      "count": 1004,
      "max": [
        0.9999988675117493,
        0.9999997615814209,
        1.0
      ],
      "min": [
        -0.9999886751174927,
        -1.0,
        -1.0
      ],
      "type": "VEC3"
    },
    {
      "bufferView": 1,
      "componentType": 5126,
      "count": 1004,
      "max": [
        1.000001311302185,
        1.0000007152557373
      ],
      "min": [
        -0.00019367683853488415,
        -0.004223467316478491
      ],
      "type": "VEC2"
    },
    {
      "bufferView": 0,
      "componentType": 5125,
      "count": 3726,
      "type": "SCALAR"
    },
    {
      "bufferView": 2,
      "byteOffset": 24096,
      "componentType": 5126,
      "count": 658,
      "max": [
        1.0,
        0.04596951976418495,
        1.00003981590271
      ],
      "min": [
        -1.0,
        0.004010135307908058,
        -1.0
      ],
      "type": "VEC3"
    },
    {
      "bufferView": 2,
      "byteOffset": 31992,
      "componentType": 5126,
      "count": 658,
      "max": [
        0.9999989867210388,
        0.999999463558197,
        1.0
      ],
      "min": [
        -0.9999988675117493,
        -1.0,
        -1.0
      ],
      "type": "VEC3"
    },
    {
      "bufferView": 1,
      "byteOffset": 8032,
      "componentType": 5126,
      "count": 658,
      "max": [
        1.0000001192092896,
        1.0000001192092896
      ],
      "min": [
        -1.862645149230957e-07,
        0.0
      ],
      "type": "VEC2"
    },
    {
      "bufferView": 0,
      "byteOffset": 14904,
      "componentType": 5125,
      "count": 2091,
      "type": "SCALAR"
    },
    {
      "bufferView": 2,
      "byteOffset": 39888,
      "componentType": 5126,
      "count": 6658,
      "max": [
        0.30353835225105286,
        0.04498639702796936,
        0.7948718070983887
      ],
      "min": [
        -0.6742846965789795,
        0.034637369215488434,
        -0.7948718070983887
      ],
      "type": "VEC3"
    },
    {
      "bufferView": 2,
      "byteOffset": 119784,
      "componentType": 5126,
      "count": 6658,
      "max": [
        1.0,
        0.0,
        1.0
      ],
      "min": [
        -1.0,
        -1.0,
        -1.0
      ],
      "type": "VEC3"
    },
    {
      "bufferView": 1,
      "byteOffset": 13296,
      "componentType": 5126,
      "count": 6658,
      "max": [
        0.9868489503860474,
        0.9717326760292053
      ],
      "min": [
        0.02785785309970379,
        0.08553662896156311
      ],
      "type": "VEC2"
    },
    {
      "bufferView": 0,
      "byteOffset": 23268,
      "componentType": 5125,
      "count": 18810,
      "type": "SCALAR"
    },
    {
      "bufferView": 2,
      "byteOffset": 199680,
      "componentType": 5126,
      "count": 10,
      "max": [
        0.9436480402946472,
        0.042956430464982986,
        0.3954246938228607
      ],
      "min": [
        0.3531913757324219,
        0.0428527407348156,
        -0.3954246938228607
      ],
      "type": "VEC3"
    },
    {
      "bufferView": 2,
      "byteOffset": 199800,
      "componentType": 5126,
      "count": 10,
      "max": [
        0.00017560938431415707,
        -1.0,
        -0.0
      ],
      "min": [
        0.0001756053970893845,
        -1.0,
        -0.0
      ],
      "type": "VEC3"
    },
    {
      "bufferView": 1,
      "byteOffset": 66560,
      "componentType": 5126,
      "count": 10,
      "max": [
        0.9853852391242981,
        0.7000000476837158
      ],
      "min": [
        0.6653169989585876,
        0.30000001192092896
      ],
      "type": "VEC2"
    },
    {
      "bufferView": 0,
      "byteOffset": 98508,
      "componentType": 5125,
      "count": 24,
      "type": "SCALAR"
    },
    {
      "bufferView": 2,
      "byteOffset": 199920,
      "componentType": 5126,
      "count": 197,
      "max": [
        0.9525690078735352,
        0.040747493505477905,
        0.9962731003761292
      ],
      "min": [
        -0.9871562123298645,
        0.00032827630639076233,
        -0.9918805360794067
      ],
      "type": "VEC3"
    },
    {
      "bufferView": 2,
      "byteOffset": 202284,
      "componentType": 5126,
      "count": 197,
      "max": [
        0.9999863505363464,
        0.9999300241470337,
        1.0
      ],
      "min": [
        -0.009018536657094955,
        -0.008131911978125572,
        -0.060919612646102905
      ],
      "type": "VEC3"
    },
    {
      "bufferView": 1,
      "byteOffset": 66640,
      "componentType": 5126,
      "count": 197,
      "max": [
        1.0,
        1.0000001192092896
      ],
      "min": [
        -1.862645149230957e-07,
        0.0
      ],
      "type": "VEC2"
    },
    {
      "bufferView": 0,
      "byteOffset": 98604,
      "componentType": 5125,
      "count": 558,
      "type": "SCALAR"
    },
    {
      "bufferView": 2,
      "byteOffset": 204648,
      "componentType": 5126,
      "count": 260,
      "max": [
        1.9896221160888672,
        0.03584830090403557,
        1.790144443511963
      ],
      "min": [
        -0.010377824306488037,
        -0.013429410755634308,
        -0.20985561609268188
      ],
      "type": "VEC3"
    },
    {
      "bufferView": 2,
      "byteOffset": 207768,
      "componentType": 5126,
      "count": 260,
      "max": [
        1.0,
        1.0,
        1.0
      ],
      "min": [
        -1.0,
        -1.0,
        -1.0
      ],
      "type": "VEC3"
    },
    {
      "bufferView": 1,
      "byteOffset": 68216,
      "componentType": 5126,
      "count": 260,
      "max": [
        1.0,
        1.0
      ],
      "min": [
        0.0,
        0.0
      ],
      "type": "VEC2"
    },
    {
      "bufferView": 0,
      "byteOffset": 100836,
      "componentType": 5125,
      "count": 1056,
      "type": "SCALAR"
    },
    {
      "bufferView": 2,
      "byteOffset": 210888,
      "componentType": 5126,
      "count": 253,
      "max": [
        1.9896221160888672,
        0.020023200660943985,
        1.790144443511963
      ],
      "min": [
        -0.010377824306488037,
        -0.013429410755634308,
        -0.20985561609268188
      ],
      "type": "VEC3"
    },
    {
      "bufferView": 2,
      "byteOffset": 213924,
      "componentType": 5126,
      "count": 253,
      "max": [
        1.0,
        1.0,
        1.0
      ],
      "min": [
        -1.0,
        0.0,
        -1.0
      ],
      "type": "VEC3"
    },
    {
      "bufferView": 1,
      "byteOffset": 70296,
      "componentType": 5126,
      "count": 253,
      "max": [
        1.0,
        1.0
      ],
      "min": [
        0.0,
        -2.9103830456733704e-11
      ],
      "type": "VEC2"
    },
    {
      "bufferView": 0,
      "byteOffset": 105060,
      "componentType": 5125,
      "count": 816,
      "type": "SCALAR"
    },
    {
      "bufferView": 2,
      "byteOffset": 216960,
      "componentType": 5126,
      "count": 40,
      "max": [
        1.9493376016616821,
        0.013429410755634308,
        1.7770633697509766
      ],
      "min": [
        0.053100645542144775,
        0.013429410755634308,
        -0.19896569848060608
      ],
      "type": "VEC3"
    },
    {
      "bufferView": 2,
      "byteOffset": 217440,
      "componentType": 5126,
      "count": 40,
      "max": [
        0.0,
        1.0,
        -0.0
      ],
      "min": [
        0.0,
        1.0,
        -0.0
      ],
      "type": "VEC3"
    },
    {
      "bufferView": 1,
      "byteOffset": 72320,
      "componentType": 5126,
      "count": 40,
      "max": [
        1.0011563301086426,
        0.9970744848251343
      ],
      "min": [
        0.0034164106473326683,
        0.002925366163253784
      ],
      "type": "VEC2"
    },
    {
      "bufferView": 0,
      "byteOffset": 108324,
      "componentType": 5125,
      "count": 162,
      "type": "SCALAR"
    },
    {
      "bufferView": 2,
      "byteOffset": 217920,
      "componentType": 5126,
      "count": 4,
      "max": [
        1.982201337814331,
        0.013429410755634308,
        0.9030221700668335
      ],
      "min": [
        1.9548149108886719,
        0.013429410755634308,
        0.6772665977478027
      ],
      "type": "VEC3"
    },
    {
      "bufferView": 2,
      "byteOffset": 217968,
      "componentType": 5126,
      "count": 4,
      "max": [
        0.0,
        1.0,
        -0.0
      ],
      "min": [
        0.0,
        1.0,
        -0.0
      ],
      "type": "VEC3"
    },
    {
      "bufferView": 1,
      "byteOffset": 72640,
      "componentType": 5126,
      "count": 4,
      "max": [
        0.9962947368621826,
        0.5555555820465088
      ],
      "min": [
        0.9826204776763916,
        0.444444477558136
      ],
      "type": "VEC2"
    },
    {
      "bufferView": 0,
      "byteOffset": 108972,
      "componentType": 5125,
      "count": 6,
      "type": "SCALAR"
    }
  ],
  "asset": {
    "extras": {
      "author": "LagzDesign (https://sketchfab.com/LagzDesign)",
      "license": "CC-BY-4.0 (http://creativecommons.org/licenses/by/4.0/)",
      "source": "https://sketchfab.com/3d-models/laptop-dell-xps-8dfab66738b84ebd886da3de58fbef28",
      "title": "Laptop (Dell XPS)"
    },
    "generator": "Sketchfab-16.16.0",
    "version": "2.0"
  },
  "bufferViews": [
    {
      "buffer": 0,
      "byteLength": 108996,
      "name": "floatBufferViews",
      "target": 34963
    },
    {
      "buffer": 0,
      "byteLength": 72672,
      "byteOffset": 108996,
      "byteStride": 8,
      "name": "floatBufferViews",
      "target": 34962
    },
    {
      "buffer": 0,
      "byteLength": 218016,
      "byteOffset": 181668,
      "byteStride": 12,
      "name": "floatBufferViews",
      "target": 34962
    }
  ],
  "buffers": [
    {
      "byteLength": 399684,
      "uri": "scene.bin"
    }
  ],
  "extensionsUsed": [
    "KHR_materials_specular"
  ],
  "images": [
    {
      "uri": "textures/keyboard_baseColor.png"
    },
    {
      "uri": "textures/wallpeper_baseColor.jpeg"
    }
  ],
  "materials": [
    {
      "doubleSided": true,
      "name": "color",
      "pbrMetallicRoughness": {
        "baseColorFactor": [
          0.374135314741418,
          0.374135314741418,
          0.374135314741418,
          1.0
        ],
        "metallicFactor": 0.256198,
        "roughnessFactor": 0.376033
      }
    },
    {
      "doubleSided": true,
      "extensions": {
        "KHR_materials_specular": {
          "specularColorFactor": [
            1.0,
            1.0,
            1.0
          ],
          "specularFactor": 0.3
        }
      },
      "name": "border",
      "pbrMetallicRoughness": {
        "baseColorFactor": [
          0.002438758498157676,
          0.002438758498157676,
          0.002438758498157676,
          1.0
        ],
        "metallicFactor": 0.6,
        "roughnessFactor": 0.5
      }
    },
    {
      "doubleSided": true,
      "extensions": {
        "KHR_materials_specular": {
          "specularColorFactor": [
            1.0,
            1.0,
            1.0
          ],
          "specularFactor": 0.3
        }
      },
      "name": "keyboard",
      "pbrMetallicRoughness": {
        "baseColorFactor": [
          0.7,
          0.7,
          0.7,
          1.0
        ],
        "baseColorTexture": {
          "index": 0
        },
        "metallicFactor": 0.6,
        "roughnessFactor": 0.5
      }
    },
    {
      "doubleSided": true,
      "extensions": {
        "KHR_materials_specular": {
          "specularColorFactor": [
            1.0,
            1.0,
            1.0
          ],
          "specularFactor": 0.4371606895341988
        }
      },
      "name": "material",
      "pbrMetallicRoughness": {
        "baseColorFactor": [
          0.0,
          0.0,
          0.0,
          1.0
        ],
        "metallicFactor": 0.7422452284599351,
        "roughnessFactor": 0.483471
      }
    },
    {
      "doubleSided": true,
      "extensions": {
        "KHR_materials_specular": {
          "specularColorFactor": [
            1.0,
            1.0,
            1.0
          ],
          "specularFactor": 0.0
        }
      },
      "name": "dark",
      "pbrMetallicRoughness": {
        "baseColorFactor": [
          0.0,
          0.0,
          0.0,
          1.0
        ],
        "metallicFactor": 0.0,
        "roughnessFactor": 0.0
      }
    },
    {
      "doubleSided": true,
      "extensions": {
        "KHR_materials_specular": {
          "specularColorFactor": [
            1.0,
            1.0,
            1.0
          ],
          "specularFactor": 0.0832626243803447
        }
      },
      "name": "color.001",
      "pbrMetallicRoughness": {
        "baseColorFactor": [
          0.41318613572391216,
          0.41318613572391216,
          0.41318613572391216,
          1.0
        ],
        "metallicFactor": 0.0,
        "roughnessFactor": 0.11987276905143306
      }
    },
    {
      "doubleSided": true,
      "extensions": {
        "KHR_materials_specular": {
          "specularColorFactor": [
            1.0,
            1.0,
            1.0
          ],
          "specularFactor": 0.3
        }
      },
      "name": "screen_border",
      "pbrMetallicRoughness": {
        "baseColorFactor": [
          0.0,
          0.0,
          0.0,
          1.0
        ],
        "metallicFactor": 0.6,
        "roughnessFactor": 0.5
      }
    },
    {
      "doubleSided": true,
      "emissiveFactor": [
        0.5,
        0.5,
        0.5
      ],
      "emissiveTexture": {
        "index": 1
      },
      "name": "wallpeper",
      "pbrMetallicRoughness": {
        "baseColorTexture": {
          "index": 1
        },
        "metallicFactor": 0.2,
        "roughnessFactor": 0.05
      }
    },
    {
      "doubleSided": true,
      "name": "webcam",
      "pbrMetallicRoughness": {
        "baseColorFactor": [
          0.00187544,
          0.00187544,
          0.00187544,
          1.0
        ],
        "metallicFactor": 0.0576923,
        "roughnessFactor": 0.0961538
      }
    }
  ],
  "meshes": [
    {
      "name": "Object_0",
      "primitives": [
        {
          "attributes": {
            "NORMAL": 1,
            "POSITION": 0,
            "TEXCOORD_0": 2
          },
          "indices": 3,
          "material": 0,
          "mode": 4
        }
      ]
    },
    {
      "name": "Object_1",
      "primitives": [
        {
          "attributes": {
            "NORMAL": 5,
            "POSITION": 4,
            "TEXCOORD_0": 6
          },
          "indices": 7,
          "material": 1,
          "mode": 4
        }
      ]
    },
    {
      "name": "Object_2",
      "primitives": [
        {
          "attributes": {
            "NORMAL": 9,
            "POSITION": 8,
            "TEXCOORD_0": 10
          },
          "indices": 11,
          "material": 2,
          "mode": 4
        }
      ]
    },
    {
      "name": "Object_3",
      "primitives": [
        {
          "attributes": {
            "NORMAL": 13,
            "POSITION": 12,
            "TEXCOORD_0": 14
          },
          "indices": 15,
          "material": 3,
          "mode": 4
        }
      ]
    },
    {
      "name": "Object_4",
      "primitives": [
        {
          "attributes": {
            "NORMAL": 17,
            "POSITION": 16,
            "TEXCOORD_0": 18
          },
          "indices": 19,
          "material": 4,
          "mode": 4
        }
      ]
    },
    {
      "name": "Object_5",
      "primitives": [
        {
          "attributes": {
            "NORMAL": 21,
            "POSITION": 20,
            "TEXCOORD_0": 22
          },
          "indices": 23,
          "material": 5,
          "mode": 4
        }
      ]
    },
    {
      "name": "Object_6",
      "primitives": [
        {
          "attributes": {
            "NORMAL": 25,
            "POSITION": 24,
            "TEXCOORD_0": 26
          },
          "indices": 27,
          "material": 6,
          "mode": 4
        }
      ]
    },
    {
      "name": "Object_7",
      "primitives": [
        {
          "attributes": {
            "NORMAL": 29,
            "POSITION": 28,
            "TEXCOORD_0": 30
          },
          "indices": 31,
          "material": 7,
          "mode": 4
        }
      ]
    },
    {
      "name": "Object_8",
      "primitives": [
        {
          "attributes": {
            "NORMAL": 33,
            "POSITION": 32,
            "TEXCOORD_0": 34
          },
          "indices": 35,
          "material": 8,
          "mode": 4
        }
      ]
    }
  ],
  "nodes": [
    {
      "children": [
        1
      ],
      "matrix": [
        1.0,
        0.0,
        0.0,
        0.0,
        0.0,
        2.220446049250313e-16,
        -1.0,
        0.0,
        0.0,
        1.0,
        2.220446049250313e-16,
        0.0,
        0.0,
        0.0,
        0.0,
        1.0
      ],
      "name": "Sketchfab_model"
    },
    {
      "children": [
        2
      ],
      "name": "root"
    },
    {
      "children": [
        3,
        9
      ],
      "matrix": [
        1.0,
        0.0,
        0.0,
        0.0,
        0.0,
        2.220446049250313e-16,
        1.0,
        0.0,
        0.0,
        -1.0,
        2.220446049250313e-16,
        0.0,
        0.0,
        0.0,
        0.0,
        1.0
      ],
      "name": "GLTF_SceneRootNode"
    },
    {
      "children": [
        4,
        5,
        6,
        7,
        8
      ],
      "matrix": [
        1.9999905449907733,
        0.006149792476950747,
        0.0,
        0.0,
        -0.006149792476950747,
        1.9999905449907733,
        0.0,
        0.0,
        0.0,
        0.0,
        2.914156198501587,
        0.0,
        -0.000273287296295166,
        0.002028241753578186,
        0.0012540817260742188,
        1.0
      ],
      "name": "Plane_0"
    },
    {
      "mesh": 0,
      "name": "Object_4"
    },
    {
      "mesh": 1,
      "name": "Object_5"
    },
    {
      "mesh": 2,
      "name": "Object_6"
    },
    {
      "mesh": 3,
      "name": "Object_7"
    },
    {
      "mesh": 4,
      "name": "Object_8"
    },
    {
      "children": [
        10,
        11,
        12,
        13
      ],
      "matrix": [
        -0.6898155117307919,
        1.8772734253299272,
        0.0,
        0.0,
        -1.8772734253299272,
        -0.6898155117307919,
        0.0,
        0.0,
        0.0,
        0.0,
        2.914156198501587,
        0.0,
        -1.9797115325927734,
        0.06204608827829361,
        -2.3013501167297363,
        1.0
      ],
      "name": "Plane.001_1"
    },
    {
      "mesh": 5,
      "name": "Object_10"
    },
    {
      "mesh": 6,
      "name": "Object_11"
    },
    {
      "mesh": 7,
      "name": "Object_12"
    },
    {
      "mesh": 8,
      "name": "Object_13"
    }
  ],
  "samplers": [
    {
      "magFilter": 9729,
      "minFilter": 9987,
      "wrapS": 10497,
      "wrapT": 10497
    }
  ],
  "scene": 0,
  "scenes": [
    {
      "name": "Sketchfab_Scene",
      "nodes": [
        0
      ]
    }
  ],
  "textures": [
    {
      "sampler": 0,
      "source": 0
    },
    {
      "sampler": 0,
      "source": 1
    }
  ]
}
